<svg xmlns="http://www.w3.org/2000/svg" width="1180" height="2580" viewBox="0 0 1180 2580" role="img" aria-labelledby="title desc">
  <title id="title">Rotated array binary search illustration</title>
  <desc id="desc">An eight-step vertical walkthrough for searching key 3 in the rotated sorted array [5,6,7,8,9,10,1,2,3] using modified binary search.</desc>

  <defs>
    <style>
      .bg { fill: #edf5fb; }
      .card { fill: #f8fbff; stroke: #c8d9eb; stroke-width: 2; }
      .title { font: 700 34px "Segoe UI", Arial, sans-serif; fill: #17324b; }
      .subtitle { font: 500 18px "Segoe UI", Arial, sans-serif; fill: #49647d; }
      .section { font: 700 24px "Segoe UI", Arial, sans-serif; fill: #17324b; }
      .body { font: 500 17px "Segoe UI", Arial, sans-serif; fill: #35506a; }
      .small { font: 500 15px "Segoe UI", Arial, sans-serif; fill: #4c6780; }
      .mono { font: 700 16px "SFMono-Regular", Consolas, monospace; fill: #17324b; }
      .pipe { fill: #ffffff; stroke: #d4e1ef; stroke-width: 2; rx: 18; ry: 18; }
      .panel { fill: #ffffff; stroke: #c8d9eb; stroke-width: 2; rx: 22; ry: 22; }
      .panel-final { fill: #f7fbff; stroke: #2d8a4e; stroke-width: 3; rx: 22; ry: 22; }
      .step-no { font: 800 32px "Segoe UI", Arial, sans-serif; fill: #1e9f66; }
      .step-word { font: 700 15px "Segoe UI", Arial, sans-serif; fill: #17324b; }
      .panel-title { font: 700 18px "Segoe UI", Arial, sans-serif; fill: #17324b; }
      .panel-body { font: 500 15px "Segoe UI", Arial, sans-serif; fill: #43617b; }
      .key-chip { fill: #ffffff; stroke: #d8e3ef; stroke-width: 2; rx: 12; ry: 12; }
      .arr-label { font: 700 18px "Segoe UI", Arial, sans-serif; fill: #17324b; }
      .idx-text { font: 600 12px "SFMono-Regular", Consolas, monospace; fill: #5a738c; text-anchor: middle; }
      .value { font: 700 18px "Segoe UI", Arial, sans-serif; fill: #17324b; text-anchor: middle; dominant-baseline: middle; }
      .box { fill: #ffffff; stroke: #9db6d0; stroke-width: 2; rx: 10; ry: 10; }
      .edge-box { fill: #dff5e7; stroke: #57a77e; stroke-width: 2.5; rx: 10; ry: 10; }
      .mid-box { fill: #fff1c9; stroke: #d6b158; stroke-width: 2.5; rx: 10; ry: 10; }
      .hit-box { fill: #dff5e7; stroke: #2d8a4e; stroke-width: 3; rx: 10; ry: 10; }
      .ptr-label { font: 700 13px "Segoe UI", Arial, sans-serif; text-anchor: middle; fill: #17324b; }
      .ptr-line { stroke: #13a37f; stroke-width: 1.0; fill: none; marker-end: url(#arrowGreen); }
      .result-card { fill: #17324b; rx: 20; ry: 20; }
      .result-title { font: 700 22px "Segoe UI", Arial, sans-serif; fill: #ffffff; }
      .result-body { font: 500 18px "Segoe UI", Arial, sans-serif; fill: #d8e6f5; }
    </style>

    <marker id="arrowGreen" markerWidth="12" markerHeight="12" refX="12" refY="6" orient="auto">
      <path d="M0,0 L12,6 L0,12 z" fill="#13a37f"/>
    </marker>
  </defs>

  <rect width="1180" height="2580" class="bg"/>
  <rect x="25" y="28" width="1130" height="2524" class="card" rx="28" ry="28"/>

  <text x="60" y="84" class="title">Binary Search in a Sorted and Rotated array</text>
  <text x="60" y="120" class="subtitle">Single binary search on <tspan class="mono">[5, 6, 7, 8, 9, 10, 1, 2, 3]</tspan> with <tspan class="mono">key = 3</tspan></text>
  <text x="60" y="150" class="subtitle">Each step keeps the exact reasoning from the original 8-frame walkthrough.</text>

  <rect x="60" y="170" width="1060" height="102" class="pipe"/>
  <text x="90" y="210" class="section">Rule</text>
  <text x="90" y="240" class="body">At every iteration, compute <tspan class="mono">mid</tspan>, detect which half is sorted, then decide whether the key can lie inside that half. Discard the other half.</text>

  <text x="60" y="320" class="section">Example: arr = [5, 6, 7, 8, 9, 10, 1, 2, 3], key = 3</text>

  <!-- Step 1 -->
  <rect x="60" y="360" width="1060" height="240" class="panel"/>
  <text x="90" y="410" class="step-no">01</text>
  <text x="92" y="432" class="step-word">Step</text>
  <text x="160" y="410" class="panel-title">Initialize low at the beginning and high at the end of the array.</text>
  <rect x="100" y="458" width="120" height="44" class="key-chip"/>
  <text x="160" y="486" class="mono" text-anchor="middle">Key = 3</text>
  <text x="320" y="532" class="arr-label">arr[] =</text>
  <text x="410" y="470" class="ptr-label">low</text>
  <path d="M410 475 L410 500" class="ptr-line"/>
  <text x="890" y="470" class="ptr-label">high</text>
  <path d="M890 475 L890 500" class="ptr-line"/>
  <rect x="380" y="500" width="60" height="56" class="edge-box"/>
  <rect x="440" y="500" width="60" height="56" class="box"/>
  <rect x="500" y="500" width="60" height="56" class="box"/>
  <rect x="560" y="500" width="60" height="56" class="box"/>
  <rect x="620" y="500" width="60" height="56" class="box"/>
  <rect x="680" y="500" width="60" height="56" class="box"/>
  <rect x="740" y="500" width="60" height="56" class="box"/>
  <rect x="800" y="500" width="60" height="56" class="box"/>
  <rect x="860" y="500" width="60" height="56" class="edge-box"/>
  <text x="410" y="530" class="value">5</text>
  <text x="470" y="530" class="value">6</text>
  <text x="530" y="530" class="value">7</text>
  <text x="590" y="530" class="value">8</text>
  <text x="650" y="530" class="value">9</text>
  <text x="710" y="530" class="value">10</text>
  <text x="770" y="530" class="value">1</text>
  <text x="830" y="530" class="value">2</text>
  <text x="890" y="530" class="value">3</text>
  <text x="410" y="580" class="idx-text">0</text>
  <text x="470" y="580" class="idx-text">1</text>
  <text x="530" y="580" class="idx-text">2</text>
  <text x="590" y="580" class="idx-text">3</text>
  <text x="650" y="580" class="idx-text">4</text>
  <text x="710" y="580" class="idx-text">5</text>
  <text x="770" y="580" class="idx-text">6</text>
  <text x="830" y="580" class="idx-text">7</text>
  <text x="890" y="580" class="idx-text">8</text>

  <!-- Step 2 -->
  <rect x="60" y="620" width="1060" height="240" class="panel"/>
  <text x="90" y="670" class="step-no">02</text>
  <text x="92" y="692" class="step-word">Step</text>
  <text x="160" y="670" class="panel-title">Calculate mid = (low + high) / 2. Since arr[mid] &gt;= arr[low],</text>
  <text x="160" y="696" class="panel-title">the left half of the array is sorted.</text>
  <rect x="100" y="718" width="120" height="44" class="key-chip"/>
  <text x="160" y="746" class="mono" text-anchor="middle">Key = 3</text>
  <text x="320" y="792" class="arr-label">arr[] =</text>
  <text x="410" y="730" class="ptr-label">low</text>
  <path d="M410 735 L410 760" class="ptr-line"/>
  <text x="650" y="730" class="ptr-label">mid</text>
  <path d="M650 735 L650 760" class="ptr-line"/>
  <text x="890" y="730" class="ptr-label">high</text>
  <path d="M890 735 L890 760" class="ptr-line"/>
  <rect x="380" y="760" width="60" height="56" class="edge-box"/>
  <rect x="440" y="760" width="60" height="56" class="box"/>
  <rect x="500" y="760" width="60" height="56" class="box"/>
  <rect x="560" y="760" width="60" height="56" class="box"/>
  <rect x="620" y="760" width="60" height="56" class="mid-box"/>
  <rect x="680" y="760" width="60" height="56" class="box"/>
  <rect x="740" y="760" width="60" height="56" class="box"/>
  <rect x="800" y="760" width="60" height="56" class="box"/>
  <rect x="860" y="760" width="60" height="56" class="edge-box"/>
  <text x="410" y="790" class="value">5</text>
  <text x="470" y="790" class="value">6</text>
  <text x="530" y="790" class="value">7</text>
  <text x="590" y="790" class="value">8</text>
  <text x="650" y="790" class="value">9</text>
  <text x="710" y="790" class="value">10</text>
  <text x="770" y="790" class="value">1</text>
  <text x="830" y="790" class="value">2</text>
  <text x="890" y="790" class="value">3</text>
  <text x="410" y="840" class="idx-text">0</text>
  <text x="470" y="840" class="idx-text">1</text>
  <text x="530" y="840" class="idx-text">2</text>
  <text x="590" y="840" class="idx-text">3</text>
  <text x="650" y="840" class="idx-text">4</text>
  <text x="710" y="840" class="idx-text">5</text>
  <text x="770" y="840" class="idx-text">6</text>
  <text x="830" y="840" class="idx-text">7</text>
  <text x="890" y="840" class="idx-text">8</text>

  <!-- Step 3 -->
  <rect x="60" y="880" width="1060" height="240" class="panel"/>
  <text x="90" y="930" class="step-no">03</text>
  <text x="92" y="952" class="step-word">Step</text>
  <text x="160" y="930" class="panel-title">As arr[low] &gt; key, the key does not lie in the left half,</text>
  <text x="160" y="956" class="panel-title">So move to the right half by updating low = mid + 1.</text>
  <rect x="100" y="978" width="120" height="44" class="key-chip"/>
  <text x="160" y="1006" class="mono" text-anchor="middle">Key = 3</text>
  <text x="320" y="1052" class="arr-label">arr[] =</text>
  <text x="650" y="990" class="ptr-label">mid</text>
  <path d="M650 995 L650 1020" class="ptr-line"/>
  <text x="710" y="990" class="ptr-label">low</text>
  <path d="M710 995 L710 1020" class="ptr-line"/>
  <text x="890" y="990" class="ptr-label">high</text>
  <path d="M890 995 L890 1020" class="ptr-line"/>
  <rect x="380" y="1020" width="60" height="56" class="box"/>
  <rect x="440" y="1020" width="60" height="56" class="box"/>
  <rect x="500" y="1020" width="60" height="56" class="box"/>
  <rect x="560" y="1020" width="60" height="56" class="box"/>
  <rect x="620" y="1020" width="60" height="56" class="mid-box"/>
  <rect x="680" y="1020" width="60" height="56" class="edge-box"/>
  <rect x="740" y="1020" width="60" height="56" class="box"/>
  <rect x="800" y="1020" width="60" height="56" class="box"/>
  <rect x="860" y="1020" width="60" height="56" class="edge-box"/>
  <text x="410" y="1050" class="value">5</text>
  <text x="470" y="1050" class="value">6</text>
  <text x="530" y="1050" class="value">7</text>
  <text x="590" y="1050" class="value">8</text>
  <text x="650" y="1050" class="value">9</text>
  <text x="710" y="1050" class="value">10</text>
  <text x="770" y="1050" class="value">1</text>
  <text x="830" y="1050" class="value">2</text>
  <text x="890" y="1050" class="value">3</text>
  <text x="410" y="1100" class="idx-text">0</text>
  <text x="470" y="1100" class="idx-text">1</text>
  <text x="530" y="1100" class="idx-text">2</text>
  <text x="590" y="1100" class="idx-text">3</text>
  <text x="650" y="1100" class="idx-text">4</text>
  <text x="710" y="1100" class="idx-text">5</text>
  <text x="770" y="1100" class="idx-text">6</text>
  <text x="830" y="1100" class="idx-text">7</text>
  <text x="890" y="1100" class="idx-text">8</text>

  <!-- Step 4 -->
  <rect x="60" y="1140" width="1060" height="240" class="panel"/>
  <text x="90" y="1190" class="step-no">04</text>
  <text x="92" y="1212" class="step-word">Step</text>
  <text x="160" y="1190" class="panel-title">Calculate mid. Since arr[mid] &lt; arr[high],</text>
  <text x="160" y="1216" class="panel-title">the right half of the array is sorted.</text>
  <rect x="100" y="1238" width="120" height="44" class="key-chip"/>
  <text x="160" y="1266" class="mono" text-anchor="middle">Key = 3</text>
  <text x="320" y="1312" class="arr-label">arr[] =</text>
  <text x="710" y="1250" class="ptr-label">low</text>
  <path d="M710 1255 L710 1280" class="ptr-line"/>
  <text x="770" y="1250" class="ptr-label">mid</text>
  <path d="M770 1255 L770 1280" class="ptr-line"/>
  <text x="890" y="1250" class="ptr-label">high</text>
  <path d="M890 1255 L890 1280" class="ptr-line"/>
  <rect x="380" y="1280" width="60" height="56" class="box"/>
  <rect x="440" y="1280" width="60" height="56" class="box"/>
  <rect x="500" y="1280" width="60" height="56" class="box"/>
  <rect x="560" y="1280" width="60" height="56" class="box"/>
  <rect x="620" y="1280" width="60" height="56" class="box"/>
  <rect x="680" y="1280" width="60" height="56" class="edge-box"/>
  <rect x="740" y="1280" width="60" height="56" class="mid-box"/>
  <rect x="800" y="1280" width="60" height="56" class="box"/>
  <rect x="860" y="1280" width="60" height="56" class="edge-box"/>
  <text x="410" y="1310" class="value">5</text>
  <text x="470" y="1310" class="value">6</text>
  <text x="530" y="1310" class="value">7</text>
  <text x="590" y="1310" class="value">8</text>
  <text x="650" y="1310" class="value">9</text>
  <text x="710" y="1310" class="value">10</text>
  <text x="770" y="1310" class="value">1</text>
  <text x="830" y="1310" class="value">2</text>
  <text x="890" y="1310" class="value">3</text>
  <text x="410" y="1360" class="idx-text">0</text>
  <text x="470" y="1360" class="idx-text">1</text>
  <text x="530" y="1360" class="idx-text">2</text>
  <text x="590" y="1360" class="idx-text">3</text>
  <text x="650" y="1360" class="idx-text">4</text>
  <text x="710" y="1360" class="idx-text">5</text>
  <text x="770" y="1360" class="idx-text">6</text>
  <text x="830" y="1360" class="idx-text">7</text>
  <text x="890" y="1360" class="idx-text">8</text>

  <!-- Step 5 -->
  <rect x="60" y="1400" width="1060" height="240" class="panel"/>
  <text x="90" y="1450" class="step-no">05</text>
  <text x="92" y="1472" class="step-word">Step</text>
  <text x="160" y="1450" class="panel-title">As key &gt;= arr[mid] and key &lt;= arr[high], the key lies in the right half,</text>
  <text x="160" y="1476" class="panel-title">So move to the right half by updating low = mid + 1.</text>
  <rect x="100" y="1498" width="120" height="44" class="key-chip"/>
  <text x="160" y="1526" class="mono" text-anchor="middle">Key = 3</text>
  <text x="320" y="1572" class="arr-label">arr[] =</text>
  <text x="770" y="1510" class="ptr-label">mid</text>
  <path d="M770 1515 L770 1540" class="ptr-line"/>
  <text x="830" y="1510" class="ptr-label">low</text>
  <path d="M830 1515 L830 1540" class="ptr-line"/>
  <text x="890" y="1510" class="ptr-label">high</text>
  <path d="M890 1515 L890 1540" class="ptr-line"/>
  <rect x="380" y="1540" width="60" height="56" class="box"/>
  <rect x="440" y="1540" width="60" height="56" class="box"/>
  <rect x="500" y="1540" width="60" height="56" class="box"/>
  <rect x="560" y="1540" width="60" height="56" class="box"/>
  <rect x="620" y="1540" width="60" height="56" class="box"/>
  <rect x="680" y="1540" width="60" height="56" class="box"/>
  <rect x="740" y="1540" width="60" height="56" class="mid-box"/>
  <rect x="800" y="1540" width="60" height="56" class="edge-box"/>
  <rect x="860" y="1540" width="60" height="56" class="edge-box"/>
  <text x="410" y="1570" class="value">5</text>
  <text x="470" y="1570" class="value">6</text>
  <text x="530" y="1570" class="value">7</text>
  <text x="590" y="1570" class="value">8</text>
  <text x="650" y="1570" class="value">9</text>
  <text x="710" y="1570" class="value">10</text>
  <text x="770" y="1570" class="value">1</text>
  <text x="830" y="1570" class="value">2</text>
  <text x="890" y="1570" class="value">3</text>
  <text x="410" y="1620" class="idx-text">0</text>
  <text x="470" y="1620" class="idx-text">1</text>
  <text x="530" y="1620" class="idx-text">2</text>
  <text x="590" y="1620" class="idx-text">3</text>
  <text x="650" y="1620" class="idx-text">4</text>
  <text x="710" y="1620" class="idx-text">5</text>
  <text x="770" y="1620" class="idx-text">6</text>
  <text x="830" y="1620" class="idx-text">7</text>
  <text x="890" y="1620" class="idx-text">8</text>

  <!-- Step 6 -->
  <rect x="60" y="1660" width="1060" height="240" class="panel"/>
  <text x="90" y="1710" class="step-no">06</text>
  <text x="92" y="1732" class="step-word">Step</text>
  <text x="160" y="1710" class="panel-title">Calculate mid. Since arr[mid] &lt; arr[high],</text>
  <text x="160" y="1736" class="panel-title">the right half of the array is sorted.</text>
  <rect x="100" y="1758" width="120" height="44" class="key-chip"/>
  <text x="160" y="1786" class="mono" text-anchor="middle">Key = 3</text>
  <text x="320" y="1832" class="arr-label">arr[] =</text>
  <text x="816" y="1770" class="ptr-label">low</text>
  <path d="M816 1775 L816 1800" class="ptr-line"/>
  <text x="844" y="1770" class="ptr-label">mid</text>
  <path d="M844 1775 L844 1800" class="ptr-line"/>
  <text x="890" y="1770" class="ptr-label">high</text>
  <path d="M890 1775 L890 1800" class="ptr-line"/>
  <rect x="380" y="1800" width="60" height="56" class="box"/>
  <rect x="440" y="1800" width="60" height="56" class="box"/>
  <rect x="500" y="1800" width="60" height="56" class="box"/>
  <rect x="560" y="1800" width="60" height="56" class="box"/>
  <rect x="620" y="1800" width="60" height="56" class="box"/>
  <rect x="680" y="1800" width="60" height="56" class="box"/>
  <rect x="740" y="1800" width="60" height="56" class="box"/>
  <rect x="800" y="1800" width="60" height="56" class="edge-box"/>
  <rect x="860" y="1800" width="60" height="56" class="edge-box"/>
  <text x="410" y="1830" class="value">5</text>
  <text x="470" y="1830" class="value">6</text>
  <text x="530" y="1830" class="value">7</text>
  <text x="590" y="1830" class="value">8</text>
  <text x="650" y="1830" class="value">9</text>
  <text x="710" y="1830" class="value">10</text>
  <text x="770" y="1830" class="value">1</text>
  <text x="830" y="1830" class="value">2</text>
  <text x="890" y="1830" class="value">3</text>
  <text x="410" y="1880" class="idx-text">0</text>
  <text x="470" y="1880" class="idx-text">1</text>
  <text x="530" y="1880" class="idx-text">2</text>
  <text x="590" y="1880" class="idx-text">3</text>
  <text x="650" y="1880" class="idx-text">4</text>
  <text x="710" y="1880" class="idx-text">5</text>
  <text x="770" y="1880" class="idx-text">6</text>
  <text x="830" y="1880" class="idx-text">7</text>
  <text x="890" y="1880" class="idx-text">8</text>

  <!-- Step 7 -->
  <rect x="60" y="1920" width="1060" height="240" class="panel"/>
  <text x="90" y="1970" class="step-no">07</text>
  <text x="92" y="1992" class="step-word">Step</text>
  <text x="160" y="1970" class="panel-title">As key &gt;= arr[mid] and key &lt;= arr[high], the key lies in the right half,</text>
  <text x="160" y="1996" class="panel-title">So move to the right half by updating low = mid + 1.</text>
  <rect x="100" y="2018" width="120" height="44" class="key-chip"/>
  <text x="160" y="2046" class="mono" text-anchor="middle">Key = 3</text>
  <text x="320" y="2092" class="arr-label">arr[] =</text>
  <text x="830" y="2030" class="ptr-label">mid</text>
  <path d="M830 2035 L830 2060" class="ptr-line"/>
  <text x="875" y="2030" class="ptr-label">low</text>
  <path d="M880 2035 L880 2060" class="ptr-line"/>
  <text x="910" y="2030" class="ptr-label">high</text>
  <path d="M900 2035 L900 2060" class="ptr-line"/>
  <rect x="380" y="2060" width="60" height="56" class="box"/>
  <rect x="440" y="2060" width="60" height="56" class="box"/>
  <rect x="500" y="2060" width="60" height="56" class="box"/>
  <rect x="560" y="2060" width="60" height="56" class="box"/>
  <rect x="620" y="2060" width="60" height="56" class="box"/>
  <rect x="680" y="2060" width="60" height="56" class="box"/>
  <rect x="740" y="2060" width="60" height="56" class="box"/>
  <rect x="800" y="2060" width="60" height="56" class="mid-box"/>
  <rect x="860" y="2060" width="60" height="56" class="edge-box"/>
  <text x="410" y="2090" class="value">5</text>
  <text x="470" y="2090" class="value">6</text>
  <text x="530" y="2090" class="value">7</text>
  <text x="590" y="2090" class="value">8</text>
  <text x="650" y="2090" class="value">9</text>
  <text x="710" y="2090" class="value">10</text>
  <text x="770" y="2090" class="value">1</text>
  <text x="830" y="2090" class="value">2</text>
  <text x="890" y="2090" class="value">3</text>
  <text x="410" y="2140" class="idx-text">0</text>
  <text x="470" y="2140" class="idx-text">1</text>
  <text x="530" y="2140" class="idx-text">2</text>
  <text x="590" y="2140" class="idx-text">3</text>
  <text x="650" y="2140" class="idx-text">4</text>
  <text x="710" y="2140" class="idx-text">5</text>
  <text x="770" y="2140" class="idx-text">6</text>
  <text x="830" y="2140" class="idx-text">7</text>
  <text x="890" y="2140" class="idx-text">8</text>

  <!-- Step 8 -->
  <rect x="60" y="2180" width="1060" height="260" class="panel-final"/>
  <text x="90" y="2230" class="step-no">08</text>
  <text x="92" y="2252" class="step-word">Step</text>
  <text x="160" y="2230" class="panel-title">Calculate mid, as arr[mid] is equal to the key,</text>
  <text x="160" y="2256" class="panel-title">the key is found, and return mid as its index.</text>
  <rect x="100" y="2278" width="120" height="44" class="key-chip"/>
  <text x="160" y="2306" class="mono" text-anchor="middle">Key = 3</text>
  <text x="320" y="2352" class="arr-label">arr[] =</text>
  <text x="890" y="2290" class="ptr-label">low mid high</text>
  <path d="M875 2295 L875 2320" class="ptr-line"/>
  <path d="M890 2295 L890 2320" class="ptr-line"/>
  <path d="M905 2295 L905 2320" class="ptr-line"/>
  <rect x="380" y="2320" width="60" height="56" class="box"/>
  <rect x="440" y="2320" width="60" height="56" class="box"/>
  <rect x="500" y="2320" width="60" height="56" class="box"/>
  <rect x="560" y="2320" width="60" height="56" class="box"/>
  <rect x="620" y="2320" width="60" height="56" class="box"/>
  <rect x="680" y="2320" width="60" height="56" class="box"/>
  <rect x="740" y="2320" width="60" height="56" class="box"/>
  <rect x="800" y="2320" width="60" height="56" class="box"/>
  <rect x="860" y="2320" width="60" height="56" class="hit-box"/>
  <text x="410" y="2350" class="value">5</text>
  <text x="470" y="2350" class="value">6</text>
  <text x="530" y="2350" class="value">7</text>
  <text x="590" y="2350" class="value">8</text>
  <text x="650" y="2350" class="value">9</text>
  <text x="710" y="2350" class="value">10</text>
  <text x="770" y="2350" class="value">1</text>
  <text x="830" y="2350" class="value">2</text>
  <text x="890" y="2350" class="value">3</text>
  <text x="410" y="2400" class="idx-text">0</text>
  <text x="470" y="2400" class="idx-text">1</text>
  <text x="530" y="2400" class="idx-text">2</text>
  <text x="590" y="2400" class="idx-text">3</text>
  <text x="650" y="2400" class="idx-text">4</text>
  <text x="710" y="2400" class="idx-text">5</text>
  <text x="770" y="2400" class="idx-text">6</text>
  <text x="830" y="2400" class="idx-text">7</text>
  <text x="890" y="2400" class="idx-text">8</text>
  <text x="590" y="2500" class="section" text-anchor="middle">The key is found at index 8</text>
</svg>
